<mxfile host="Electron" agent="Mozilla/5.0 (Windows NT 10.0; Win64; x64) AppleWebKit/537.36 (KHTML, like Gecko) draw.io/24.7.17 Chrome/128.0.6613.36 Electron/32.0.1 Safari/537.36" version="24.7.17">
  <diagram name="Page-1" id="5f0bae14-7c28-e335-631c-24af17079c00">
    <mxGraphModel dx="1195" dy="803" grid="1" gridSize="10" guides="1" tooltips="1" connect="1" arrows="1" fold="1" page="1" pageScale="1" pageWidth="1169" pageHeight="827" background="none" math="0" shadow="0">
      <root>
        <mxCell id="0" />
        <mxCell id="1" parent="0" />
        <mxCell id="aGzd4Eh5vK2DAppzpXCv-6" value="&lt;pre style=&quot;font-size: 15px;&quot;&gt;&lt;font style=&quot;background-color: rgb(255, 255, 255);&quot; face=&quot;Inter&quot;&gt;&lt;b&gt;Assistant service&lt;/b&gt;&lt;/font&gt;&lt;/pre&gt;&lt;pre style=&quot;font-size: 15px;&quot;&gt;FastAPI&lt;font style=&quot;background-color: rgb(255, 255, 255);&quot; face=&quot;Inter&quot;&gt;&lt;b&gt;&lt;br&gt;&lt;/b&gt;&lt;/font&gt;&lt;/pre&gt;&lt;div&gt;&lt;font style=&quot;background-color: rgb(255, 255, 255);&quot; face=&quot;Inter&quot;&gt;&lt;b&gt;&lt;br&gt;&lt;/b&gt;&lt;/font&gt;&lt;/div&gt;" style="html=1;whiteSpace=wrap;rounded=1;strokeColor=#82b366;align=center;verticalAlign=middle;fontFamily=Helvetica;fontSize=12;fillColor=#d5e8d4;" parent="1" vertex="1">
          <mxGeometry x="248" y="430" width="150" height="70" as="geometry" />
        </mxCell>
        <mxCell id="aGzd4Eh5vK2DAppzpXCv-16" value="User" style="shape=umlActor;verticalLabelPosition=bottom;verticalAlign=top;html=1;outlineConnect=0;rounded=1;strokeColor=default;align=center;fontFamily=Helvetica;fontSize=12;fontColor=default;fillColor=default;" parent="1" vertex="1">
          <mxGeometry x="60" y="294" width="30" height="60" as="geometry" />
        </mxCell>
        <mxCell id="aGzd4Eh5vK2DAppzpXCv-36" value="" style="group" parent="1" vertex="1" connectable="0">
          <mxGeometry x="293" y="500" width="60" height="120" as="geometry" />
        </mxCell>
        <mxCell id="aGzd4Eh5vK2DAppzpXCv-17" value="" style="shape=cylinder3;whiteSpace=wrap;html=1;boundedLbl=1;backgroundOutline=1;size=15;rounded=1;strokeColor=#9673a6;align=center;verticalAlign=middle;fontFamily=Helvetica;fontSize=12;fillColor=#e1d5e7;" parent="aGzd4Eh5vK2DAppzpXCv-36" vertex="1">
          <mxGeometry x="-3" y="40" width="60" height="80" as="geometry" />
        </mxCell>
        <mxCell id="h1I5hR6zzA4uv2Iy6lsu-29" value="" style="endArrow=classic;startArrow=classic;html=1;rounded=0;entryX=0.5;entryY=0;entryDx=0;entryDy=0;exitX=0.5;exitY=1;exitDx=0;exitDy=0;exitPerimeter=0;" parent="aGzd4Eh5vK2DAppzpXCv-36" edge="1">
          <mxGeometry width="50" height="50" relative="1" as="geometry">
            <mxPoint x="26.170000000000016" as="sourcePoint" />
            <mxPoint x="26.170000000000016" y="37" as="targetPoint" />
          </mxGeometry>
        </mxCell>
        <mxCell id="aGzd4Eh5vK2DAppzpXCv-37" value="" style="group" parent="1" vertex="1" connectable="0">
          <mxGeometry x="745" y="279" width="60" height="120" as="geometry" />
        </mxCell>
        <mxCell id="aGzd4Eh5vK2DAppzpXCv-24" value="" style="shape=cylinder3;whiteSpace=wrap;html=1;boundedLbl=1;backgroundOutline=1;size=15;rounded=1;strokeColor=#9673a6;align=center;verticalAlign=middle;fontFamily=Helvetica;fontSize=12;fillColor=#e1d5e7;" parent="aGzd4Eh5vK2DAppzpXCv-37" vertex="1">
          <mxGeometry y="44" width="60" height="80" as="geometry" />
        </mxCell>
        <mxCell id="aGzd4Eh5vK2DAppzpXCv-25" value="&lt;span style=&quot;font-weight: bold; color: rgb(95, 99, 104); font-family: Arial, sans-serif; font-size: 14px; text-align: left; background-color: rgb(255, 255, 255);&quot;&gt;Qdrant&lt;/span&gt;&lt;span style=&quot;color: rgb(77, 81, 86); font-family: Arial, sans-serif; font-size: 14px; text-align: left; background-color: rgb(255, 255, 255);&quot;&gt;&amp;nbsp;&lt;/span&gt;" style="text;html=1;align=center;verticalAlign=middle;whiteSpace=wrap;rounded=0;fontFamily=Helvetica;fontSize=12;fontColor=default;" parent="aGzd4Eh5vK2DAppzpXCv-37" vertex="1">
          <mxGeometry y="11" width="60" height="30" as="geometry" />
        </mxCell>
        <mxCell id="aGzd4Eh5vK2DAppzpXCv-41" value="&lt;pre style=&quot;font-size: 15px;&quot;&gt;&lt;font style=&quot;background-color: rgb(255, 255, 255);&quot; face=&quot;Inter&quot;&gt;&lt;b&gt;LLM service&lt;/b&gt;&lt;/font&gt;&lt;/pre&gt;&lt;pre style=&quot;font-size: 15px;&quot;&gt;grpc&lt;font style=&quot;background-color: rgb(255, 255, 255);&quot; face=&quot;Inter&quot;&gt;&lt;b&gt;&lt;br&gt;&lt;/b&gt;&lt;/font&gt;&lt;/pre&gt;&lt;div&gt;&lt;font style=&quot;background-color: rgb(255, 255, 255);&quot; face=&quot;Inter&quot;&gt;&lt;b&gt;&lt;br&gt;&lt;/b&gt;&lt;/font&gt;&lt;/div&gt;" style="html=1;whiteSpace=wrap;rounded=0;strokeColor=#82b366;align=center;verticalAlign=middle;fontFamily=Helvetica;fontSize=12;fillColor=#d5e8d4;" parent="1" vertex="1">
          <mxGeometry x="600" y="90" width="220" height="70" as="geometry" />
        </mxCell>
        <mxCell id="h1I5hR6zzA4uv2Iy6lsu-3" value="&lt;pre style=&quot;font-size: 15px;&quot;&gt;&lt;font style=&quot;background-color: rgb(255, 255, 255);&quot; face=&quot;Inter&quot;&gt;&lt;b&gt;Auth service&lt;/b&gt;&lt;/font&gt;&lt;/pre&gt;&lt;pre style=&quot;font-size: 15px;&quot;&gt;FastAPI&lt;font style=&quot;background-color: rgb(255, 255, 255);&quot; face=&quot;Inter&quot;&gt;&lt;b&gt;&lt;br&gt;&lt;/b&gt;&lt;/font&gt;&lt;/pre&gt;&lt;div&gt;&lt;font style=&quot;background-color: rgb(255, 255, 255);&quot; face=&quot;Inter&quot;&gt;&lt;b&gt;&lt;br&gt;&lt;/b&gt;&lt;/font&gt;&lt;/div&gt;" style="html=1;whiteSpace=wrap;rounded=1;strokeColor=#82b366;align=center;verticalAlign=middle;fontFamily=Helvetica;fontSize=12;fillColor=#d5e8d4;" parent="1" vertex="1">
          <mxGeometry x="248" y="190" width="150" height="70" as="geometry" />
        </mxCell>
        <mxCell id="h1I5hR6zzA4uv2Iy6lsu-12" value="" style="endArrow=classic;html=1;rounded=0;entryX=0.002;entryY=0.41;entryDx=0;entryDy=0;entryPerimeter=0;strokeColor=#E6D0DE;" parent="1" target="h1I5hR6zzA4uv2Iy6lsu-3" edge="1">
          <mxGeometry width="50" height="50" relative="1" as="geometry">
            <mxPoint x="100" y="300" as="sourcePoint" />
            <mxPoint x="229.05000000000007" y="230.14999999999998" as="targetPoint" />
          </mxGeometry>
        </mxCell>
        <mxCell id="h1I5hR6zzA4uv2Iy6lsu-14" value="login" style="text;html=1;align=center;verticalAlign=middle;whiteSpace=wrap;rounded=0;rotation=-30;" parent="1" vertex="1">
          <mxGeometry x="132" y="240" width="60" height="20" as="geometry" />
        </mxCell>
        <mxCell id="h1I5hR6zzA4uv2Iy6lsu-15" value="" style="endArrow=classic;html=1;rounded=0;entryX=0;entryY=0.5;entryDx=0;entryDy=0;strokeColor=#E6D0DE;" parent="1" source="aGzd4Eh5vK2DAppzpXCv-16" edge="1">
          <mxGeometry width="50" height="50" relative="1" as="geometry">
            <mxPoint x="103" y="350" as="sourcePoint" />
            <mxPoint x="248" y="445" as="targetPoint" />
          </mxGeometry>
        </mxCell>
        <mxCell id="h1I5hR6zzA4uv2Iy6lsu-16" value="" style="endArrow=classic;html=1;rounded=0;exitX=-0.001;exitY=0.61;exitDx=0;exitDy=0;exitPerimeter=0;strokeColor=#D5E8D4;" parent="1" source="h1I5hR6zzA4uv2Iy6lsu-3" edge="1">
          <mxGeometry width="50" height="50" relative="1" as="geometry">
            <mxPoint x="248" y="230" as="sourcePoint" />
            <mxPoint x="110" y="310" as="targetPoint" />
          </mxGeometry>
        </mxCell>
        <mxCell id="h1I5hR6zzA4uv2Iy6lsu-17" value="&lt;font color=&quot;#9999ff&quot;&gt;tokens&lt;/font&gt;" style="text;html=1;align=center;verticalAlign=middle;whiteSpace=wrap;rounded=0;rotation=330;" parent="1" vertex="1">
          <mxGeometry x="150" y="274" width="60" height="20" as="geometry" />
        </mxCell>
        <mxCell id="h1I5hR6zzA4uv2Iy6lsu-18" value="&lt;font color=&quot;#9999ff&quot;&gt;access token&lt;/font&gt;" style="text;html=1;align=center;verticalAlign=middle;whiteSpace=wrap;rounded=0;rotation=35;" parent="1" vertex="1">
          <mxGeometry x="110" y="354" width="80" height="20" as="geometry" />
        </mxCell>
        <mxCell id="h1I5hR6zzA4uv2Iy6lsu-19" value="&lt;font color=&quot;#00994d&quot;&gt;какой актер играл Чапаева&lt;/font&gt;" style="text;html=1;align=center;verticalAlign=middle;whiteSpace=wrap;rounded=0;rotation=35;" parent="1" vertex="1">
          <mxGeometry x="84" y="390" width="164" height="20" as="geometry" />
        </mxCell>
        <mxCell id="h1I5hR6zzA4uv2Iy6lsu-21" value="&lt;font color=&quot;#9999ff&quot;&gt;is valid token?&lt;/font&gt;" style="text;html=1;align=center;verticalAlign=middle;whiteSpace=wrap;rounded=0;rotation=-90;" parent="1" vertex="1">
          <mxGeometry x="260" y="332" width="100" height="14" as="geometry" />
        </mxCell>
        <mxCell id="h1I5hR6zzA4uv2Iy6lsu-23" value="" style="endArrow=classic;startArrow=classic;html=1;rounded=0;entryX=0.5;entryY=0;entryDx=0;entryDy=0;exitX=0.5;exitY=1;exitDx=0;exitDy=0;exitPerimeter=0;" parent="1" source="h1I5hR6zzA4uv2Iy6lsu-7" target="h1I5hR6zzA4uv2Iy6lsu-3" edge="1">
          <mxGeometry width="50" height="50" relative="1" as="geometry">
            <mxPoint x="128" y="300" as="sourcePoint" />
            <mxPoint x="178" y="250" as="targetPoint" />
          </mxGeometry>
        </mxCell>
        <mxCell id="h1I5hR6zzA4uv2Iy6lsu-24" value="" style="endArrow=classic;startArrow=classic;html=1;rounded=0;exitX=0.5;exitY=0;exitDx=0;exitDy=0;" parent="1" source="aGzd4Eh5vK2DAppzpXCv-6" target="h1I5hR6zzA4uv2Iy6lsu-3" edge="1">
          <mxGeometry width="50" height="50" relative="1" as="geometry">
            <mxPoint x="443" y="369.43000000000006" as="sourcePoint" />
            <mxPoint x="483" y="369.43000000000006" as="targetPoint" />
          </mxGeometry>
        </mxCell>
        <mxCell id="h1I5hR6zzA4uv2Iy6lsu-7" value="" style="shape=cylinder3;whiteSpace=wrap;html=1;boundedLbl=1;backgroundOutline=1;size=15;rounded=1;strokeColor=#9673a6;align=center;verticalAlign=middle;fontFamily=Helvetica;fontSize=12;fillColor=#e1d5e7;" parent="1" vertex="1">
          <mxGeometry x="293" y="79.99666666666667" width="60" height="73.33333333333333" as="geometry" />
        </mxCell>
        <mxCell id="h1I5hR6zzA4uv2Iy6lsu-8" value="&lt;div style=&quot;text-align: left;&quot;&gt;&lt;font size=&quot;1&quot; face=&quot;Arial, sans-serif&quot; color=&quot;#5f6368&quot;&gt;&lt;span style=&quot;background-color: rgb(255, 255, 255);&quot;&gt;&lt;b style=&quot;font-size: 13px;&quot;&gt;PostgreSQL&lt;/b&gt;&lt;/span&gt;&lt;/font&gt;&lt;/div&gt;" style="text;html=1;align=center;verticalAlign=middle;whiteSpace=wrap;rounded=0;fontFamily=Helvetica;fontSize=12;fontColor=default;" parent="1" vertex="1">
          <mxGeometry x="290" y="60" width="60" height="5" as="geometry" />
        </mxCell>
        <mxCell id="h1I5hR6zzA4uv2Iy6lsu-28" value="&lt;pre style=&quot;font-size: 15px;&quot;&gt;&lt;font style=&quot;background-color: rgb(255, 255, 255);&quot; face=&quot;Inter&quot;&gt;&lt;b&gt;Text Vector service&lt;/b&gt;&lt;/font&gt;&lt;/pre&gt;&lt;pre style=&quot;font-size: 15px;&quot;&gt;grpc&lt;font style=&quot;background-color: rgb(255, 255, 255);&quot; face=&quot;Inter&quot;&gt;&lt;b&gt;&lt;br&gt;&lt;/b&gt;&lt;/font&gt;&lt;/pre&gt;&lt;div&gt;&lt;font style=&quot;background-color: rgb(255, 255, 255);&quot; face=&quot;Inter&quot;&gt;&lt;b&gt;&lt;br&gt;&lt;/b&gt;&lt;/font&gt;&lt;/div&gt;" style="html=1;whiteSpace=wrap;rounded=1;strokeColor=#82b366;align=center;verticalAlign=middle;fontFamily=Helvetica;fontSize=12;fillColor=#d5e8d4;" parent="1" vertex="1">
          <mxGeometry x="700" y="430" width="150" height="70" as="geometry" />
        </mxCell>
        <mxCell id="aGzd4Eh5vK2DAppzpXCv-18" value="&lt;div style=&quot;text-align: left;&quot;&gt;&lt;font face=&quot;Arial, sans-serif&quot; color=&quot;#5f6368&quot;&gt;&lt;span style=&quot;font-size: 14px; background-color: rgb(255, 255, 255);&quot;&gt;&lt;b&gt;MongoDB&lt;/b&gt;&lt;/span&gt;&lt;/font&gt;&lt;/div&gt;" style="text;html=1;align=center;verticalAlign=middle;whiteSpace=wrap;rounded=0;fontFamily=Helvetica;fontSize=12;fontColor=default;" parent="1" vertex="1">
          <mxGeometry x="290" y="620" width="60" height="30" as="geometry" />
        </mxCell>
        <mxCell id="h1I5hR6zzA4uv2Iy6lsu-30" value="" style="endArrow=classic;html=1;rounded=0;exitX=0.824;exitY=0.005;exitDx=0;exitDy=0;exitPerimeter=0;entryX=0;entryY=1;entryDx=0;entryDy=0;strokeColor=#E6D0DE;" parent="1" source="aGzd4Eh5vK2DAppzpXCv-6" target="h1I5hR6zzA4uv2Iy6lsu-52" edge="1">
          <mxGeometry width="50" height="50" relative="1" as="geometry">
            <mxPoint x="570" y="460" as="sourcePoint" />
            <mxPoint x="570" y="230" as="targetPoint" />
          </mxGeometry>
        </mxCell>
        <mxCell id="h1I5hR6zzA4uv2Iy6lsu-31" value="What is the intent? [&lt;span style=&quot;color: rgb(0, 153, 77);&quot;&gt;какой актер играл Чапаева&lt;/span&gt;]" style="text;html=1;align=center;verticalAlign=middle;whiteSpace=wrap;rounded=0;rotation=-45;" parent="1" vertex="1">
          <mxGeometry x="340" y="294" width="280" height="20" as="geometry" />
        </mxCell>
        <mxCell id="h1I5hR6zzA4uv2Iy6lsu-32" value="" style="endArrow=classic;html=1;rounded=0;exitX=0.25;exitY=1;exitDx=0;exitDy=0;entryX=0.986;entryY=0.065;entryDx=0;entryDy=0;entryPerimeter=0;strokeColor=#D5E8D4;" parent="1" source="h1I5hR6zzA4uv2Iy6lsu-52" target="aGzd4Eh5vK2DAppzpXCv-6" edge="1">
          <mxGeometry width="50" height="50" relative="1" as="geometry">
            <mxPoint x="590" y="250" as="sourcePoint" />
            <mxPoint x="400" y="430" as="targetPoint" />
          </mxGeometry>
        </mxCell>
        <mxCell id="h1I5hR6zzA4uv2Iy6lsu-33" value="This is RAG" style="text;html=1;align=center;verticalAlign=middle;whiteSpace=wrap;rounded=0;rotation=-45;" parent="1" vertex="1">
          <mxGeometry x="500" y="300" width="70" height="21" as="geometry" />
        </mxCell>
        <mxCell id="h1I5hR6zzA4uv2Iy6lsu-38" value="" style="endArrow=classic;html=1;rounded=0;exitX=0;exitY=0.5;exitDx=0;exitDy=0;strokeColor=#E6D0DE;" parent="1" edge="1">
          <mxGeometry width="50" height="50" relative="1" as="geometry">
            <mxPoint x="397.71006467905386" y="466.26237921249276" as="sourcePoint" />
            <mxPoint x="700" y="466" as="targetPoint" />
          </mxGeometry>
        </mxCell>
        <mxCell id="h1I5hR6zzA4uv2Iy6lsu-39" value="if RAG [&lt;span style=&quot;color: rgb(0, 153, 77);&quot;&gt;какой актер играл Чапаева&lt;/span&gt;]" style="text;html=1;align=center;verticalAlign=middle;whiteSpace=wrap;rounded=0;rotation=0;" parent="1" vertex="1">
          <mxGeometry x="455" y="450" width="200" height="15" as="geometry" />
        </mxCell>
        <mxCell id="h1I5hR6zzA4uv2Iy6lsu-40" value="&lt;pre style=&quot;font-size: 15px;&quot;&gt;&lt;font style=&quot;background-color: rgb(255, 255, 255);&quot; face=&quot;Inter&quot;&gt;&lt;b&gt;UGC&lt;/b&gt;&lt;/font&gt;&lt;/pre&gt;" style="html=1;whiteSpace=wrap;rounded=1;align=center;verticalAlign=middle;fontFamily=Helvetica;fontSize=12;dashed=1;" parent="1" vertex="1">
          <mxGeometry x="700" y="540" width="150" height="70" as="geometry" />
        </mxCell>
        <mxCell id="h1I5hR6zzA4uv2Iy6lsu-43" value="" style="endArrow=classic;startArrow=classic;html=1;rounded=0;exitX=1.015;exitY=0.938;exitDx=0;exitDy=0;exitPerimeter=0;dashed=1;" parent="1" source="aGzd4Eh5vK2DAppzpXCv-6" edge="1">
          <mxGeometry width="50" height="50" relative="1" as="geometry">
            <mxPoint x="400" y="460" as="sourcePoint" />
            <mxPoint x="700" y="570" as="targetPoint" />
          </mxGeometry>
        </mxCell>
        <mxCell id="h1I5hR6zzA4uv2Iy6lsu-44" value="" style="endArrow=classic;startArrow=classic;html=1;rounded=0;exitX=0.5;exitY=0;exitDx=0;exitDy=0;entryX=0.5;entryY=1;entryDx=0;entryDy=0;entryPerimeter=0;" parent="1" source="h1I5hR6zzA4uv2Iy6lsu-28" target="aGzd4Eh5vK2DAppzpXCv-24" edge="1">
          <mxGeometry width="50" height="50" relative="1" as="geometry">
            <mxPoint x="850" y="418" as="sourcePoint" />
            <mxPoint x="870" y="428" as="targetPoint" />
          </mxGeometry>
        </mxCell>
        <mxCell id="h1I5hR6zzA4uv2Iy6lsu-46" value="" style="endArrow=classic;html=1;rounded=0;entryX=0.988;entryY=0.584;entryDx=0;entryDy=0;entryPerimeter=0;strokeColor=#D5E8D4;exitX=0;exitY=0.729;exitDx=0;exitDy=0;exitPerimeter=0;" parent="1" source="h1I5hR6zzA4uv2Iy6lsu-28" edge="1">
          <mxGeometry width="50" height="50" relative="1" as="geometry">
            <mxPoint x="690" y="481" as="sourcePoint" />
            <mxPoint x="396.20000000000005" y="481.8800000000001" as="targetPoint" />
          </mxGeometry>
        </mxCell>
        <mxCell id="h1I5hR6zzA4uv2Iy6lsu-48" value="[fragments of text]" style="text;html=1;align=center;verticalAlign=middle;whiteSpace=wrap;rounded=0;rotation=0;" parent="1" vertex="1">
          <mxGeometry x="500" y="483" width="110" height="11" as="geometry" />
        </mxCell>
        <mxCell id="h1I5hR6zzA4uv2Iy6lsu-49" value="&lt;pre style=&quot;&quot;&gt;&lt;font style=&quot;font-size: 15px; background-color: rgb(255, 255, 255);&quot; face=&quot;Inter&quot;&gt;&lt;b&gt;...&lt;/b&gt;&lt;/font&gt;&lt;font face=&quot;Inter&quot;&gt;&lt;span style=&quot;font-size: 15px;&quot;&gt;&lt;b&gt;and others&lt;/b&gt;&lt;/span&gt;&lt;/font&gt;&lt;/pre&gt;" style="html=1;whiteSpace=wrap;rounded=1;align=center;verticalAlign=middle;fontFamily=Helvetica;fontSize=12;dashed=1;" parent="1" vertex="1">
          <mxGeometry x="700" y="640" width="150" height="70" as="geometry" />
        </mxCell>
        <mxCell id="h1I5hR6zzA4uv2Iy6lsu-50" value="" style="endArrow=classic;startArrow=classic;html=1;rounded=0;exitX=0.984;exitY=0.914;exitDx=0;exitDy=0;dashed=1;exitPerimeter=0;" parent="1" source="aGzd4Eh5vK2DAppzpXCv-6" target="h1I5hR6zzA4uv2Iy6lsu-49" edge="1">
          <mxGeometry width="50" height="50" relative="1" as="geometry">
            <mxPoint x="450" y="650" as="sourcePoint" />
            <mxPoint x="500" y="600" as="targetPoint" />
          </mxGeometry>
        </mxCell>
        <mxCell id="h1I5hR6zzA4uv2Iy6lsu-52" value="GetFunctions" style="rounded=0;whiteSpace=wrap;html=1;fillColor=#d5e8d4;strokeColor=#82b366;" parent="1" vertex="1">
          <mxGeometry x="600" y="160" width="110" height="40" as="geometry" />
        </mxCell>
        <mxCell id="h1I5hR6zzA4uv2Iy6lsu-53" value="GetCompletion" style="rounded=0;whiteSpace=wrap;html=1;fillColor=#d5e8d4;strokeColor=#82b366;" parent="1" vertex="1">
          <mxGeometry x="710" y="160" width="110" height="40" as="geometry" />
        </mxCell>
        <mxCell id="h1I5hR6zzA4uv2Iy6lsu-57" value="" style="endArrow=classic;html=1;rounded=0;exitX=-0.001;exitY=0.82;exitDx=0;exitDy=0;exitPerimeter=0;strokeColor=#D5E8D4;" parent="1" source="aGzd4Eh5vK2DAppzpXCv-6" edge="1">
          <mxGeometry width="50" height="50" relative="1" as="geometry">
            <mxPoint x="260" y="380" as="sourcePoint" />
            <mxPoint x="90" y="380" as="targetPoint" />
          </mxGeometry>
        </mxCell>
        <mxCell id="h1I5hR6zzA4uv2Iy6lsu-58" value="&lt;font color=&quot;#ea6b66&quot;&gt;Борис Бабочкин...&lt;/font&gt;" style="text;html=1;align=center;verticalAlign=middle;whiteSpace=wrap;rounded=0;rotation=35;" parent="1" vertex="1">
          <mxGeometry x="96" y="430" width="114" height="20.81" as="geometry" />
        </mxCell>
        <mxCell id="h1I5hR6zzA4uv2Iy6lsu-60" value="" style="endArrow=classic;startArrow=classic;html=1;rounded=0;entryX=0.57;entryY=0.982;entryDx=0;entryDy=0;entryPerimeter=0;exitX=0.991;exitY=0.07;exitDx=0;exitDy=0;exitPerimeter=0;" parent="1" source="aGzd4Eh5vK2DAppzpXCv-6" target="h1I5hR6zzA4uv2Iy6lsu-53" edge="1">
          <mxGeometry width="50" height="50" relative="1" as="geometry">
            <mxPoint x="400" y="430" as="sourcePoint" />
            <mxPoint x="620" y="270" as="targetPoint" />
          </mxGeometry>
        </mxCell>
      </root>
    </mxGraphModel>
  </diagram>
</mxfile>
